:SAMPLES-PER-SECOND 30
:FULLY-SPECIFIED
:DEGREES
33
root  -52.6777 33.7084 -1.25869 -170.056 80.9227 -177.737
RightUpLeg  -50.4281 2.39845 3.15247
RightLeg  62.7792 11.8034 2.732
RightFoot  -16.7029 -0.0811156 -2.77099
RightToes  3.49245e-010 -3.18055e-015 8.94531e-016
Spine  26.4648 -1.27401 -1.91514
Spine1  1.09675 -1.12684 0.0321784
HEad  -52.1961 -2.6675 6.41084
LeftShoulder1  0 -2.69403e-036 -1.28585e-037
LeftArm  -11.0535 28.933 -80.9487
LeftForeArm  -10.5167 -7.46038 -5.4313
LeftHand  0.994569 7.17855 -5.51229
RightShoulder  -2.48481e-017 0 -8.08114e-019
RightArm  14.8578 -30.9594 88.6407
RightForeArm  -47.7503 20.5573 -16.3914
RightHand  2.06317 -13.7498 -10.7822
LeftUpLeg  -49.5377 -11.9035 0.867053
LeftLeg  57.9475 -7.64183 7.4334
LeftFoot  -16.1333 -0.081395 -1.40887
LeftToes  2.65573e-010 7.17151e-011 4.62952e-011
34
root  -50.7464 33.3197 -1.23204 -173.191 77.3596 179.487
RightUpLeg  -46.8455 3.99743 2.76249
RightLeg  63.8483 9.65488 -2.07014
RightFoot  -20.9292 -0.288564 -4.3288
RightToes  3.49245e-010 -3.18055e-015 8.94531e-016
Spine  26.4845 -1.34088 -2.46628
Spine1  0.401977 -1.91405 2.15698
HEad  -51.59 -4.34498 7.41022
LeftShoulder1  0 -2.69403e-036 -1.28585e-037
LeftArm  -12.6005 25.8207 -82.6386
LeftForeArm  -9.86729 -8.18551 -4.80523
LeftHand  0.891338 6.36569 -2.22717
RightShoulder  -2.48481e-017 0 -8.08114e-019
RightArm  -2.02924 -34.2749 87.3971
RightForeArm  -26.6086 16.7136 -3.41693
RightHand  1.84803 -13.4553 -8.32967
LeftUpLeg  -47.6548 -11.9959 0.0426393
LeftLeg  62.0007 -9.36903 5.48088
LeftFoot  -20.3231 -0.0902365 -0.497942
LeftToes  2.65573e-010 7.17151e-011 4.62952e-011
35
root  -48.5233 33.633 -1.28911 -174.024 75.841 178.925
RightUpLeg  -40.7511 5.3672 3.62975
RightLeg  62.0142 7.67353 -6.06722
RightFoot  -25.9153 -0.466407 -4.23475
RightToes  3.49245e-010 -3.18055e-015 8.94531e-016
Spine  24.7729 -1.23367 -3.40235
Spine1  0.0164831 -2.40996 3.73861
HEad  -49.1529 -4.45973 7.87286
LeftShoulder1  0 -2.69403e-036 -1.28585e-037
LeftArm  -7.1366 27.8582 -84.0595
LeftForeArm  -16.9169 -13.2169 -2.28476
LeftHand  0.695519 5.1744 0.540669
RightShoulder  -2.48481e-017 0 -8.08114e-019
RightArm  3.88978 -39.7282 87.2848
RightForeArm  -28.1322 17.098 -3.33678
RightHand  1.66826 -13.1371 -6.28348
LeftUpLeg  -42.9184 -11.0761 -0.246066
LeftLeg  62.0005 -9.87468 4.38126
LeftFoot  -23.7889 -0.0236163 0.514142
LeftToes  2.65573e-010 7.17151e-011 4.62952e-011
36
root  -46.1233 34.8777 -1.45603 -174.328 76.4577 179.393
RightUpLeg  -32.6591 5.88749 4.85148
RightLeg  56.4771 6.58998 -6.43727
RightFoot  -25.84 -0.340761 -3.13294
RightToes  3.49245e-010 -3.18055e-015 8.94531e-016
Spine  21.275 -1.31043 -3.9347
Spine1  0.0608013 -2.7475 4.16125
HEad  -45.2191 -3.56532 7.65024
LeftShoulder1  0 -2.69403e-036 -1.28585e-037
LeftArm  2.12871 33.5206 -84.7922
LeftForeArm  -28.2426 -18.1604 1.69997
LeftHand  0.672142 4.93234 0.0510693
RightShoulder  -2.48481e-017 0 -8.08114e-019
RightArm  20.6153 -45.6703 88.0586
RightForeArm  -40.5992 19.814 -9.30941
RightHand  1.56149 -12.7157 -5.56233
LeftUpLeg  -34.5012 -9.91044 -0.115356
LeftLeg  56.5724 -9.30326 4.05696
LeftFoot  -23.9558 -0.185772 -1.24365
LeftToes  2.65573e-010 7.17151e-011 4.62952e-011
37
root  -43.5925 36.9357 -1.66314 -175.569 78.0946 179.588
RightUpLeg  -22.8812 5.16795 5.51349
RightLeg  47.3988 6.94136 -3.9117
RightFoot  -15.7625 -0.0112769 -0.710983
RightToes  3.49245e-010 -3.18055e-015 8.94531e-016
Spine  15.1258 -1.5142 -3.85345
Spine1  2.29513 -2.84875 3.57937
HEad  -39.2496 -3.10729 6.93476
LeftShoulder1  0 -2.69403e-036 -1.28585e-037
LeftArm  5.24285 39.6131 -85.193
LeftForeArm  -32.5526 -19.3029 2.81559
LeftHand  0.874061 6.10635 -3.34221
RightShoulder  -2.48481e-017 0 -8.08114e-019
RightArm  30.0428 -50.5461 88.9772
RightForeArm  -47.4666 20.6636 -12.8167
RightHand  1.48678 -12.2505 -5.46731
LeftUpLeg  -23.3906 -9.1827 0.0217262
LeftLeg  46.163 -7.82746 3.85009
LeftFoot  -15.2607 -0.139004 -5.76627
LeftToes  2.65573e-010 7.17151e-011 4.62952e-011
38
root  -40.972 39.3963 -1.85638 -176.159 80.0026 -179.973
RightUpLeg  -14.0803 4.40756 5.56281
RightLeg  36.4598 7.77004 -1.72776
RightFoot  4.8455 -0.398608 2.51032
RightToes  3.49245e-010 -3.18055e-015 8.94531e-016
Spine  6.1702 -1.40669 -3.30098
Spine1  7.64773 -2.46249 2.75281
HEad  -31.9659 -3.35455 5.99109
LeftShoulder1  0 -2.69403e-036 -1.28585e-037
LeftArm  2.17225 44.5748 -85.8686
LeftForeArm  -30.9831 -18.4437 1.78451
LeftHand  1.05225 7.90602 -7.15529
RightShoulder  -2.48481e-017 0 -8.08114e-019
RightArm  31.4739 -54.0216 89.5803
RightForeArm  -48.69 20.7597 -13.0616
RightHand  1.37155 -11.7777 -4.52972
LeftUpLeg  -13.1661 -8.80807 0.175099
LeftLeg  33.5519 -4.76037 4.03295
LeftFoot  3.71895 1.198 -7.87316
LeftToes  2.65573e-010 7.17151e-011 4.62952e-011
39
root  -38.4796 41.746 -2.0037 -173.496 81.9777 -177.434
RightUpLeg  -9.46759 5.38914 5.71497
RightLeg  27.9053 7.78994 -1.02951
RightFoot  25.9512 -1.75833 4.92717
RightToes  3.49245e-010 -3.18055e-015 8.94531e-016
Spine  -3.10624 -0.986456 -2.54142
Spine1  13.7726 -1.8596 2.36651
HEad  -25.8451 -3.29326 5.16364
LeftShoulder1  0 -2.69403e-036 -1.28585e-037
LeftArm  2.24129 49.4782 -86.6879
LeftForeArm  -35.0948 -19.8833 3.94244
LeftHand  1.10818 9.06858 -9.26203
RightShoulder  -2.48481e-017 0 -8.08114e-019
RightArm  33.5809 -56.6843 89.2964
RightForeArm  -51.1567 20.944 -14.6143
RightHand  1.22131 -11.2664 -2.70442
LeftUpLeg  -7.31657 -8.7255 0.411228
LeftLeg  24.1391 -1.19189 3.97105
LeftFoot  21.3023 1.70946 -5.25743
LeftToes  2.65573e-010 7.17151e-011 4.62952e-011
40
root  -36.307 43.8324 -2.08301 -169.911 83.562 -174.485
RightUpLeg  -9.02563 7.57543 5.96305
RightLeg  24.8724 7.42407 -1.00727
RightFoot  34.8633 -2.55999 5.7201
RightToes  3.49245e-010 -3.18055e-015 8.94531e-016
Spine  -8.49072 -0.827956 -2.16734
Spine1  17.004 -1.67206 2.21136
HEad  -22.7662 -2.45252 4.54802
LeftShoulder1  0 -2.69403e-036 -1.28585e-037
LeftArm  10.231 54.9534 -87.1291
LeftForeArm  -47.7913 -23.6116 11.1382
LeftHand  1.08366 8.71112 -9.67254
RightShoulder  -2.48481e-017 0 -8.08114e-019
RightArm  38.3405 -58.5778 88.3555
RightForeArm  -55.0034 21.2406 -17.9991
RightHand  1.1219 -10.8265 -1.54714
LeftUpLeg  -6.29791 -9.01796 0.195018
LeftLeg  21.9209 0.602965 4.2126
LeftFoot  26.0726 0.989871 -2.53227
LeftToes  2.65573e-010 7.17151e-011 4.62952e-011
41
root  -34.4685 45.5612 -2.108 -169.157 84.2362 -173.721
RightUpLeg  -10.304 8.28132 6.07905
RightLeg  25.8976 7.54887 -1.01802
RightFoot  32.2103 -2.07221 4.93232
RightToes  3.49245e-010 -3.18055e-015 8.94531e-016
Spine  -8.35732 -1.15405 -2.17202
Spine1  16.5899 -1.99507 2.12604
HEad  -22.2354 -1.64464 4.04794
LeftShoulder1  0 -2.69403e-036 -1.28585e-037
LeftArm  16.0413 59.241 -86.2839
LeftForeArm  -53.2108 -25.9154 16.3363
LeftHand  1.00752 7.26195 -9.09099
RightShoulder  -2.48481e-017 0 -8.08114e-019
RightArm  40.4006 -59.395 87.5226
RightForeArm  -55.9413 21.6176 -20.1107
RightHand  1.12259 -10.7317 -1.84689
LeftUpLeg  -7.72584 -9.04348 -0.431377
LeftLeg  24.9687 -0.692768 4.43804
LeftFoot  22.0401 0.710303 -2.00998
LeftToes  2.65573e-010 7.17151e-011 4.62952e-011
42
root  -32.8402 46.8562 -2.11697 -169.467 84.288 -173.281
RightUpLeg  -11.3592 7.41296 6.12927
RightLeg  26.6516 7.5455 -1.07671
RightFoot  27.4585 -1.65165 4.43955
RightToes  3.49245e-010 -3.18055e-015 8.94531e-016
Spine  -5.45055 -1.46602 -1.97755
Spine1  15.1947 -2.3385 2.24397
HEad  -22.711 -1.52922 3.73882
LeftShoulder1  0 -2.69403e-036 -1.28585e-037
LeftArm  19.8942 60.7176 -84.6585
LeftForeArm  -51.6488 -26.5516 17.0775
LeftHand  0.945503 6.34427 -8.07509
RightShoulder  -2.48481e-017 0 -8.08114e-019
RightArm  40.1861 -59.2507 86.985
RightForeArm  -55.7145 21.9025 -20.6738
RightHand  1.17426 -10.9214 -2.59363
LeftUpLeg  -9.10146 -8.55172 -0.894056
LeftLeg  27.6347 -4.05898 3.24336
LeftFoot  18.6774 1.19219 -3.9465
LeftToes  2.65573e-010 7.17151e-011 4.62952e-011
43
root  -31.2526 47.8243 -2.14203 -168.086 84.505 -171.318
RightUpLeg  -12.3879 6.8495 5.97781
RightLeg  25.5266 7.63608 -0.945403
RightFoot  25.0085 -1.61922 4.65784
RightToes  3.49245e-010 -3.18055e-015 8.94531e-016
Spine  -2.95333 -1.42295 -1.29813
Spine1  14.6442 -2.29191 2.24001
HEad  -23.314 -1.69676 3.77886
LeftShoulder1  0 -2.69403e-036 -1.28585e-037
LeftArm  24.7025 59.9601 -83.0927
LeftForeArm  -51.1937 -25.8303 16.3461
LeftHand  0.97646 6.81434 -8.0773
RightShoulder  -2.48481e-017 0 -8.08114e-019
RightArm  41.2972 -58.3771 86.2535
RightForeArm  -55.9409 21.9379 -20.6994
RightHand  1.17849 -10.9177 -2.71106
LeftUpLeg  -10.0283 -7.70756 -1.00874
LeftLeg  26.9429 -6.84969 1.53069
LeftFoot  17.4744 1.69569 -5.94175
LeftToes  2.65573e-010 7.17151e-011 4.62952e-011
44
root  -29.6455 48.4654 -2.19003 -167.09 85.0609 -170.614
RightUpLeg  -14.3128 7.1812 5.27955
RightLeg  23.7313 7.92301 -0.678169
RightFoot  22.1388 -1.33177 4.16488
RightToes  3.49245e-010 -3.18055e-015 8.94531e-016
Spine  -1.5483 -1.26657 -0.553911
Spine1  14.334 -2.01003 1.75747
HEad  -23.818 -1.65535 4.04513
LeftShoulder1  0 -2.69403e-036 -1.28585e-037
LeftArm  26.8423 58.4905 -81.6357
LeftForeArm  -49.5272 -24.876 14.3304
LeftHand  1.03685 7.7935 -9.39935
RightShoulder  -2.48481e-017 0 -8.08114e-019
RightArm  44.6239 -57.1229 85.347
RightForeArm  -55.7817 21.8474 -20.5917
RightHand  1.12533 -10.5756 -2.41403
LeftUpLeg  -11.332 -7.16044 -1.15959
LeftLeg  23.6885 -6.8952 1.07996
LeftFoot  14.6426 1.68784 -6.57323
LeftToes  2.65573e-010 7.17151e-011 4.62952e-011
